<svg width="19" height="20" viewBox="0 0 19 20" fill="none" xmlns="http://www.w3.org/2000/svg">
<g clip-path="url(#clip0_3_1079)">
<path d="M4.95932 13.5714C4.95932 13.1771 4.81301 12.8404 4.52038 12.5614C4.22776 12.2824 3.87466 12.1429 3.46108 12.1429C3.0475 12.1429 2.6944 12.2824 2.40178 12.5614C2.10915 12.8404 1.96284 13.1771 1.96284 13.5714C1.96284 13.9658 2.10915 14.3025 2.40178 14.5815C2.6944 14.8605 3.0475 15 3.46108 15C3.87466 15 4.22776 14.8605 4.52038 14.5815C4.81301 14.3025 4.95932 13.9658 4.95932 13.5714ZM16.9452 13.5714C16.9452 13.1771 16.7989 12.8404 16.5063 12.5614C16.2137 12.2824 15.8606 12.1429 15.447 12.1429C15.0334 12.1429 14.6803 12.2824 14.3877 12.5614C14.0951 12.8404 13.9488 13.1771 13.9488 13.5714C13.9488 13.9658 14.0951 14.3025 14.3877 14.5815C14.6803 14.8605 15.0334 15 15.447 15C15.8606 15 16.2137 14.8605 16.5063 14.5815C16.7989 14.3025 16.9452 13.9658 16.9452 13.5714ZM16.4068 9.15179L15.5641 4.86607C15.525 4.69494 15.4372 4.55543 15.3007 4.44754C15.1641 4.33966 15.0061 4.28571 14.8266 4.28571H4.08145C3.90197 4.28571 3.74395 4.33966 3.60739 4.44754C3.47083 4.55543 3.38305 4.69494 3.34403 4.86607L2.50127 9.15179C2.46225 9.375 2.51688 9.57217 2.66514 9.7433C2.8134 9.91444 3.00459 10 3.23869 10H15.6694C15.9035 10 16.0947 9.91444 16.2429 9.7433C16.3912 9.57217 16.4458 9.375 16.4068 9.15179ZM13.7615 2.32143C13.7615 2.17262 13.7069 2.04613 13.5976 1.94196C13.4884 1.8378 13.3557 1.78571 13.1996 1.78571H5.70844C5.55237 1.78571 5.41972 1.8378 5.31047 1.94196C5.20122 2.04613 5.1466 2.17262 5.1466 2.32143C5.1466 2.47024 5.20122 2.59673 5.31047 2.70089C5.41972 2.80506 5.55237 2.85714 5.70844 2.85714H13.1996C13.3557 2.85714 13.4884 2.80506 13.5976 2.70089C13.7069 2.59673 13.7615 2.47024 13.7615 2.32143ZM18.4435 10.4129V17.1429H16.9452V18.5714C16.9452 18.9658 16.7989 19.3025 16.5063 19.5815C16.2137 19.8605 15.8606 20 15.447 20C15.0334 20 14.6803 19.8605 14.3877 19.5815C14.0951 19.3025 13.9488 18.9658 13.9488 18.5714V17.1429H4.95932V18.5714C4.95932 18.9658 4.81301 19.3025 4.52038 19.5815C4.22776 19.8605 3.87466 20 3.46108 20C3.0475 20 2.6944 19.8605 2.40178 19.5815C2.10915 19.3025 1.96284 18.9658 1.96284 18.5714V17.1429H0.4646V10.4129C0.4646 9.57961 0.562141 8.75 0.757225 7.92411L1.96284 2.85714C2.03307 2.27679 2.41348 1.76711 3.10408 1.32812C3.79467 0.889137 4.69206 0.558036 5.79623 0.334821C6.9004 0.111607 8.11967 0 9.45404 0C10.7884 0 12.0077 0.111607 13.1119 0.334821C14.216 0.558036 15.1134 0.889137 15.804 1.32812C16.4946 1.76711 16.875 2.27679 16.9452 2.85714L18.1743 7.92411C18.3537 8.68304 18.4435 9.51265 18.4435 10.4129Z" fill="#1D2E5B"/>
</g>
<defs>
<clipPath id="clip0_3_1079">
<rect width="17.9864" height="20" fill="white" transform="translate(0.461792)"/>
</clipPath>
</defs>
</svg>
