<svg xmlns="http://www.w3.org/2000/svg" width="23" height="24" fill="none" viewBox="0 0 23 24"><path fill="#1d2e5b" d="M15.858 6c1.003 0 1.816-.895 1.816-2s-.813-2-1.816-2-1.817.895-1.817 2 .813 2 1.817 2M14.747 10.969c.208.342.507.605.856.754.35.148.732.175 1.095.076l3.012-.829-.439-1.94-3.012.829-1.252-2.067a1.83 1.83 0 0 0-1.156-.854l-3.494-.77a1.67 1.67 0 0 0-1.154.164c-.359.193-.649.51-.827.903L6.87 10.551l1.625.895 1.506-3.317 1.787.394L7.168 17H3.14v2h4.028c.634 0 1.23-.372 1.558-.971l1.742-3.196 4.696 1.034 1.65 5.449 1.722-.633-1.65-5.448a2.03 2.03 0 0 0-.521-.867 1.77 1.77 0 0 0-.846-.463l-2.76-.607 1.609-2.954z"/></svg>