<svg xmlns="http://www.w3.org/2000/svg" width="21" height="19" fill="none" viewBox="0 0 21 19"><path fill="#192144" fill-rule="evenodd" d="m10.61 7.124 1.117-2.348c.277-.582.758-1.418 1.439-2.095.67-.665 1.471-1.118 2.44-1.118 2.094 0 3.748 1.74 3.748 3.834 0 1.59-.692 2.712-2.334 4.424-.42.439-.9.912-1.431 1.435-1.384 1.365-3.105 3.064-4.979 5.336-1.873-2.272-3.595-3.97-4.978-5.336A74 74 0 0 1 4.2 9.821C2.56 8.11 1.867 6.987 1.867 5.397c0-2.093 1.654-3.834 3.747-3.834.97 0 1.771.453 2.44 1.118.681.677 1.162 1.513 1.44 2.095zm.49 10.887a.65.65 0 0 1-.22.176.615.615 0 0 1-.76-.176c-2-2.497-3.809-4.283-5.3-5.752C2.243 9.713.619 8.113.619 5.397.618 2.554 2.854.25 5.614.25c1.999 0 3.396 1.379 4.252 2.636.325.48.572.94.744 1.303q.324-.682.745-1.303C12.21 1.627 13.608.25 15.606.25c2.76 0 4.997 2.304 4.997 5.147 0 2.716-1.624 4.316-4.203 6.862-1.49 1.47-3.3 3.256-5.3 5.75z" clip-rule="evenodd" opacity=".5"/></svg>