<svg width="21" height="18" viewBox="0 0 21 18" fill="none" xmlns="http://www.w3.org/2000/svg">
<path d="M5.61401 0.25C8.37442 0.25 10.6102 2.44375 10.6102 5.15C10.6102 2.44375 12.846 0.25 15.6064 0.25C18.3669 0.25 20.6027 2.44375 20.6027 5.15C20.6027 9.22875 16.5632 10.6675 11.0999 17.16C11.0397 17.2313 10.9647 17.2886 10.8802 17.3279C10.7956 17.3672 10.7035 17.3876 10.6102 17.3876C10.517 17.3876 10.4249 17.3672 10.3403 17.3279C10.2557 17.2886 10.1807 17.2313 10.1206 17.16C4.65724 10.6675 0.617798 9.22875 0.617798 5.15C0.617798 2.44375 2.8536 0.25 5.61401 0.25Z" fill="#F02323"/>
</svg>
