<svg width="23" height="24" viewBox="0 0 23 24" fill="none" xmlns="http://www.w3.org/2000/svg">
<path d="M15.8576 6C16.861 6 17.6744 5.10457 17.6744 4C17.6744 2.89543 16.861 2 15.8576 2C14.8542 2 14.0408 2.89543 14.0408 4C14.0408 5.10457 14.8542 6 15.8576 6Z" fill="#1D2E5B"/>
<path d="M14.7467 10.969C14.9552 11.311 15.2543 11.5742 15.6034 11.7227C15.9525 11.8712 16.3346 11.8978 16.6979 11.799L19.7102 10.97L19.2714 9.02997L16.2592 9.85897L15.0065 7.79197C14.7388 7.35053 14.3235 7.04354 13.851 6.93797L10.3573 6.16797C9.96643 6.08162 9.56063 6.13933 9.20254 6.33217C8.84446 6.52502 8.55401 6.84229 8.37605 7.23497L6.86992 10.551L8.49505 11.446L10.0012 8.12897L11.788 8.52297L7.16787 17H3.14001V19H7.16787C7.80194 19 8.39876 18.628 8.72578 18.029L10.4681 14.833L15.1636 15.867L16.8133 21.316L18.5356 20.683L16.8869 15.235C16.7851 14.9005 16.6051 14.6014 16.3649 14.3679C16.1247 14.1345 15.8329 13.9748 15.5188 13.905L12.7582 13.298L14.3679 10.344L14.7467 10.969Z" fill="#1D2E5B"/>
</svg>
