<svg xmlns="http://www.w3.org/2000/svg" version="1.1" xmlns:xlink="http://www.w3.org/1999/xlink" width="23" height="22"><svg xmlns="http://www.w3.org/2000/svg" width="23" height="22" fill="none" viewBox="0 0 23 22"><g clip-path="url(#a)"><path fill="#1d2e5b" d="M18.205 1.183c-.769.18-1.541.362-1.829.858l-2.224 4.373-11.943 2.8-.483 1.398 9.14.854-1.55 3.786-3.467.812-.87 1.488 2.5.268.286 1.217c.128.432.576.72.96.63l1.154-.27 1.34 2.253.87-1.488-.856-3.65 2.51-3.157 4.789 8.293.965-1.08L16.55 7.99l2.705-4.056c.29-.498.1-1.308-.09-2.122-.095-.403-.576-.72-.959-.63"></path></g><defs><clipPath id="SvgjsClipPath1043"><path fill="#fff" d="M.489 0h21.983v22H.489z"></path></clipPath></defs></svg><style>@media (prefers-color-scheme: light) { :root { filter: none; } }
@media (prefers-color-scheme: dark) { :root { filter: none; } }
</style></svg>